<svg xmlns="http://www.w3.org/2000/svg" xmlns:xlink="http://www.w3.org/1999/xlink" width="300" height="300" viewBox="0 0 300 300"><defs><clipPath id="b"><rect width="300" height="300"/></clipPath></defs><g id="a" clip-path="url(#b)"><rect width="300" height="300" fill="#fff"/><g transform="translate(-16 -2)"><path d="M48.654-138.647H72.093c8.956,0,16.769-.953,22.1-2.668,16.007-5.145,26.106-19.627,26.106-37.73,0-16.2-8.194-30.489-21.152-37.158-6.479-3.239-13.53-4.573-25.153-4.573H23.5v127.1H48.654Zm0-20.008v-42.113H66.376c9.718,0,13.148.381,16.96,2.1C90.577-195.624,95.15-188,95.15-178.855c0,12.958-9.337,20.2-25.916,20.2Z" transform="translate(36.499 307.777)"/><path d="M48.654-138.647H72.093c8.956,0,16.769-.953,22.1-2.668,16.007-5.145,26.106-19.627,26.106-37.73,0-16.2-8.194-30.489-21.152-37.158-6.479-3.239-13.53-4.573-25.153-4.573H23.5v127.1H48.654Zm0-20.008v-42.113H66.376c9.718,0,13.148.381,16.96,2.1C90.577-195.624,95.15-188,95.15-178.855c0,12.958-9.337,20.2-25.916,20.2Z" transform="translate(157.511 307.777)"/></g></g></svg>